<svg viewBox="0 0 256 256" xmlns="http://www.w3.org/2000/svg">
  <path d="m88.119 23.338c-1.035-3.872-4.085-6.922-7.957-7.957-7.018-1.881-35.162-1.881-35.162-1.881s-28.144 0-35.162 1.881c-3.872 1.035-6.922 4.085-7.957 7.957-1.881 7.018-1.881 21.662-1.881 21.662s0 14.644 1.881 21.662c1.035 3.872 4.085 6.922 7.957 7.957 7.018 1.881 35.162 1.881 35.162 1.881s28.144 0 35.162-1.881c3.872-1.035 6.922-4.085 7.957-7.957 1.881-7.018 1.881-21.662 1.881-21.662s0-14.644-1.881-21.662zm-52.119 35.162v-27l23.382 13.5z" transform="matrix(2.81 0 0 2.81 1.406593 1.406593)"/>
</svg>
